<?xml version="1.0" encoding="UTF-8"?>
<svg width="1044px" height="746px" viewBox="0 0 1044 746" version="1.1" xmlns="http://www.w3.org/2000/svg" xmlns:xlink="http://www.w3.org/1999/xlink">
    <!-- Generator: Sketch 53.2 (72643) - https://sketchapp.com -->
    <title>Artboard</title>
    <desc>Created with Sketch.</desc>
    <g id="Artboard" stroke="none" stroke-width="1" fill="none" fill-rule="evenodd">
        <g id="logo-2-copy" transform="translate(252.000000, 23.000000)">
            <g id="logo">
                <g id="Group" transform="translate(105.439331, 0.000000)">
                    <g id="neck" transform="translate(0.467493, 263.173379)">
                        <path d="M58.1351749,-5.68434189e-14 L99.7164892,36.0246884 C105.170336,40.7497227 112.144546,43.3506561 119.360528,43.3506561 L176.102894,43.3506561 C183.843798,43.3506561 191.285087,40.3584808 196.871177,34.999638 L228.114304,5.02750774 L287.381879,93.7280745 L276.883511,93.7280745 C218.137231,123.772404 174.540452,138.794569 146.093176,138.794569 C117.6459,138.794569 76.3210362,123.772404 22.1185861,93.7280745 L-5.68434189e-14,93.7280745 L58.1351749,-5.68434189e-14 Z" id="Path-8" fill="#F2D5BA"></path>
                        <path d="M146.093176,42.8215415 C146.093176,51.7964797 155.322927,81.6922365 173.78243,132.508812 L290.410362,93.7280745 L228.114304,5.02750774 C218.222514,15.0359909 209.147618,23.6624177 200.889617,30.906788 C174.355723,48.7143897 161.677154,42.008874 146.093176,42.8215415 Z" id="Path-17" fill="#DBBB9C"></path>
                    </g>
                    <g id="ears" transform="translate(25.305439, 147.929688)">
                        <path d="M0.0456510263,48.6054688 C13.3121292,33.8794394 20.3016721,23.4514941 21.0142797,17.321633 C22.083191,8.12684142 11.2473754,-6.00590493 5.37598857,2.75382385 C1.46173071,8.59364304 -0.315048471,23.8775247 0.0456510263,48.6054688 Z" id="Path-11" fill="#FFE6CE" transform="translate(10.543933, 24.302734) scale(-1, 1) translate(-10.543933, -24.302734) "></path>
                        <path d="M217.250672,52.8320313 C230.51715,38.1060019 237.506693,27.6780566 238.219301,21.5481955 C239.288212,12.3534039 228.452396,-1.77934243 222.581009,6.98038635 C218.666752,12.8202055 216.889972,28.1040872 217.250672,52.8320313 Z" id="Path-11-Copy-2" fill="#ECD2BA"></path>
                    </g>
                    <g id="head" transform="translate(21.040901, 0.000000)">
                        <path d="M25.3524041,35.0442767 L221.469559,35.0442767 L221.469559,240.833137 C221.469559,246.448496 219.579064,251.900342 216.102688,256.310225 L182.134298,299.400099 C175.934813,307.264323 166.411352,311.772952 156.399169,311.583712 L90.2704173,310.333812 C80.319946,310.145738 70.951469,305.607392 64.6359242,297.915764 L31.0310713,256.988806 C27.359359,252.51707 25.3524041,246.910196 25.3524041,241.124188 L25.3524041,35.0442767 Z" id="Rectangle" fill="#F7E5D4"></path>
                        <path d="M127.628555,48.1766724 L125.519768,311.263531 C135.849077,312.189736 148.422138,312.189736 163.238951,311.263531 C179.679409,307.94963 182.794658,302.285199 206.031492,270.5 C212.676509,261.410415 222.653007,257.636495 221.469559,232.353301 C221.469559,209.45602 220.418778,151.039443 218.317215,57.1035708 L127.628555,48.1766724 Z" id="Path-16" fill="#ECCEB2"></path>
                        <path d="M221.469559,204.618444 C224.975883,198.707299 221.915537,176.580871 228.971425,152.15625 C231.958913,141.814781 235.714597,130.806188 238.987274,119.572411 C246.459437,93.9234956 251.413686,67.1006997 238.957849,44.3641134 C200.517365,-12.8145344 160.309714,1.22873485 87.7208392,2.24113505 C44.2957056,2.24113505 11.8902954,14.0413867 4.02402182,44.3641134 C-6.76907005,78.8540062 6.97437764,118.535981 14.808471,147.929688 C21.9240945,174.627678 18.3603223,195.926443 25.3524041,198.438004 C44.2957056,198.438004 17.3494293,113.513244 55.1351262,67.4928843 C56.5694703,79.5409857 62.0117514,109.905583 83.5673151,117.462245 C87.7208392,118.918333 104.870359,119.921355 112.216304,113.664619 C119.562249,107.407883 121.415279,96.9636235 120.900925,92.3926453 C119.895411,83.4568061 110.704619,79.871259 106.564261,79.871259 C102.423903,79.871259 98.829869,81.090695 97.2244448,83.9887988 C95.6190206,86.8869027 96.0338201,92.3077889 97.2244448,90.5863554 C101.340439,84.6353536 107.17099,89.9242019 106.564261,94.6703121 C105.957532,99.4164223 103.312604,101.588742 95.6353924,101.588742 C87.0553467,101.588742 85.3079232,90.5863554 85.3079232,86.4899109 C85.3079232,78.0865782 89.4426454,71.2106265 93.8879689,68.8567767 C107.969781,61.4002955 124.483968,49.8972059 144.658712,53.1311906 C181.089128,58.9709375 195.985283,63.8283251 210.468677,92.3926453 C229.850083,144.884366 215.605497,214.504385 221.469559,204.618444 Z" id="Path-9" fill="#2B292A"></path>
                    </g>
                </g>
                <path d="M504,411.976542 L497.499109,537.96177 L251.325131,356.263027 C291.723975,356.688644 334.902878,356.901453 380.861841,356.901453 C426.820803,356.901453 467.866856,375.259816 504,411.976542 Z" id="Path-12" stroke="#6995D7" stroke-width="6" fill="#6995D7" stroke-linecap="round" transform="translate(377.662565, 447.112398) scale(-1, 1) translate(-377.662565, -447.112398) "></path>
                <path d="M242.51046,411.020507 L309.225048,475.179698 L338.56375,481.496528 C334.535315,429.751724 353.286449,387.391741 394.817155,354.416579 C338.457399,349.295371 287.688501,368.163347 242.51046,411.020507 Z" id="Path-15" fill="#4B77B9"></path>
                <path d="M-4.54747351e-13,356.263027 L252,541 C285.203609,516.230796 312.190441,496.323307 332.960496,481.277533 C332.536963,480.923752 304.847202,456.989566 249.891213,409.474976 C220.45889,374.000343 173.198771,356.263027 108.110855,356.263027 C106.901216,356.263027 70.864264,356.263027 -4.54747351e-13,356.263027 Z" id="Path-14" stroke="#44D7B6" stroke-width="7" fill="#44D7B6"></path>
            </g>
        </g>
        <text id="Clark" font-family="Lato-Regular, Lato" font-size="160" font-weight="normal" fill="#2B292A">
            <tspan x="313.5" y="710">Clark</tspan>
        </text>
    </g>
</svg>